<svg id="visual" viewBox="0 0 960 320" width="960" height="320" xmlns="http://www.w3.org/2000/svg" xmlns:xlink="http://www.w3.org/1999/xlink" version="1.1"><rect x="0" y="0" width="960" height="320" fill="#000000"></rect><path d="M0 231L22.8 226.2C45.7 221.3 91.3 211.7 137 210.2C182.7 208.7 228.3 215.3 274 218.7C319.7 222 365.3 222 411.2 218.5C457 215 503 208 548.8 204.5C594.7 201 640.3 201 686 198.7C731.7 196.3 777.3 191.7 823 195C868.7 198.3 914.3 209.7 937.2 215.3L960 221L960 321L937.2 321C914.3 321 868.7 321 823 321C777.3 321 731.7 321 686 321C640.3 321 594.7 321 548.8 321C503 321 457 321 411.2 321C365.3 321 319.7 321 274 321C228.3 321 182.7 321 137 321C91.3 321 45.7 321 22.8 321L0 321Z" fill="#646464"></path><path d="M0 252L22.8 245.7C45.7 239.3 91.3 226.7 137 221.5C182.7 216.3 228.3 218.7 274 222.7C319.7 226.7 365.3 232.3 411.2 233.5C457 234.7 503 231.3 548.8 233C594.7 234.7 640.3 241.3 686 239.8C731.7 238.3 777.3 228.7 823 224.5C868.7 220.3 914.3 221.7 937.2 222.3L960 223L960 321L937.2 321C914.3 321 868.7 321 823 321C777.3 321 731.7 321 686 321C640.3 321 594.7 321 548.8 321C503 321 457 321 411.2 321C365.3 321 319.7 321 274 321C228.3 321 182.7 321 137 321C91.3 321 45.7 321 22.8 321L0 321Z" fill="#888888"></path><path d="M0 270L22.8 267.7C45.7 265.3 91.3 260.7 137 256C182.7 251.3 228.3 246.7 274 244.2C319.7 241.7 365.3 241.3 411.2 244.2C457 247 503 253 548.8 253.8C594.7 254.7 640.3 250.3 686 246.3C731.7 242.3 777.3 238.7 823 241.8C868.7 245 914.3 255 937.2 260L960 265L960 321L937.2 321C914.3 321 868.7 321 823 321C777.3 321 731.7 321 686 321C640.3 321 594.7 321 548.8 321C503 321 457 321 411.2 321C365.3 321 319.7 321 274 321C228.3 321 182.7 321 137 321C91.3 321 45.7 321 22.8 321L0 321Z" fill="#aeaeae"></path><path d="M0 259L22.8 263C45.7 267 91.3 275 137 276C182.7 277 228.3 271 274 266.5C319.7 262 365.3 259 411.2 262.5C457 266 503 276 548.8 280.3C594.7 284.7 640.3 283.3 686 283.8C731.7 284.3 777.3 286.7 823 283.7C868.7 280.7 914.3 272.3 937.2 268.2L960 264L960 321L937.2 321C914.3 321 868.7 321 823 321C777.3 321 731.7 321 686 321C640.3 321 594.7 321 548.8 321C503 321 457 321 411.2 321C365.3 321 319.7 321 274 321C228.3 321 182.7 321 137 321C91.3 321 45.7 321 22.8 321L0 321Z" fill="#d6d6d6"></path><path d="M0 305L22.8 305C45.7 305 91.3 305 137 302.8C182.7 300.7 228.3 296.3 274 292.2C319.7 288 365.3 284 411.2 284.3C457 284.7 503 289.3 548.8 290C594.7 290.7 640.3 287.3 686 287.7C731.7 288 777.3 292 823 293.3C868.7 294.7 914.3 293.3 937.2 292.7L960 292L960 321L937.2 321C914.3 321 868.7 321 823 321C777.3 321 731.7 321 686 321C640.3 321 594.7 321 548.8 321C503 321 457 321 411.2 321C365.3 321 319.7 321 274 321C228.3 321 182.7 321 137 321C91.3 321 45.7 321 22.8 321L0 321Z" fill="#ffffff"></path></svg>